<?xml version="1.0" encoding="UTF-8" standalone="no"?>
<svg
   width="19"
   height="15"
   viewBox="0 0 19 15"
   fill="none"
   version="1.1"
   id="svg2"
   xmlns="http://www.w3.org/2000/svg"
   xmlns:svg="http://www.w3.org/2000/svg">
  <path
     id="path6"
     style="fill:#ffd233"
     d="M 9.5 0 C 8.7132824 0 8.0742188 0.62988533 8.0742188 1.40625 C 8.0742188 1.8456987 8.2819503 2.2324251 8.5996094 2.4902344 L 6.1816406 6.6679688 C 5.9174215 7.1249974 5.3233593 7.2773417 4.8691406 7.0078125 L 2.7226562 5.7363281 C 2.802816 5.5605487 2.8535156 5.3642594 2.8535156 5.15625 C 2.8535156 4.3798824 2.214452 3.75 1.4277344 3.75 C 0.64101671 3.75 -1.4802959e-16 4.3798824 0 5.15625 C 0 5.9326176 0.63906466 6.5625 1.4257812 6.5625 C 1.5029712 6.5625 1.580087 6.5507825 1.6542969 6.5390625 L 3.8007812 12.1875 L 15.199219 12.1875 L 17.345703 6.5390625 C 17.419903 6.5507825 17.497019 6.5625 17.574219 6.5625 C 18.360916 6.5625005 19 5.9326176 19 5.15625 C 19 4.3798824 18.360916 3.75 17.574219 3.75 C 16.787521 3.75 16.150391 4.3798824 16.150391 5.15625 C 16.150391 5.3642594 16.198151 5.5576187 16.28125 5.7363281 L 14.130859 7.0078125 C 13.673761 7.2773417 13.082559 7.1249974 12.818359 6.6679688 L 10.400391 2.4902344 C 10.718089 2.2324251 10.925781 1.8456987 10.925781 1.40625 C 10.925781 0.62988533 10.286697 0 9.5 0 z M 10.125 6.0136719 L 10.230469 6.0136719 L 10.230469 11 L 9.2460938 11 L 9.2460938 7.1484375 L 8.0644531 7.5234375 L 8.0644531 6.7480469 L 10.125 6.0136719 z M 3.3242188 13.125 C 3.0629695 13.125 2.8496094 13.335851 2.8496094 13.59375 L 2.8496094 14.53125 C 2.8496094 14.789149 3.0629695 15 3.3242188 15 L 15.675781 15 C 15.936981 15 16.150391 14.789149 16.150391 14.53125 L 16.150391 13.59375 C 16.150391 13.335851 15.936981 13.125 15.675781 13.125 L 3.3242188 13.125 z " />
  <defs
     id="defs2">
    <clipPath
       clipPathUnits="userSpaceOnUse"
       id="clipPath3">
      <g
         id="g4">
        <rect
           width="19"
           height="15"
           fill="#ffffff"
           id="rect3"
           x="0"
           y="0" />
      </g>
    </clipPath>
    <clipPath
       clipPathUnits="userSpaceOnUse"
       id="clipPath4">
      <g
         id="g5">
        <rect
           width="19"
           height="15"
           fill="#ffffff"
           id="rect4"
           x="0"
           y="0" />
      </g>
    </clipPath>
  </defs>
</svg>
