<?xml version="1.0" encoding="UTF-8" standalone="no"?>
<svg
   width="19"
   height="16"
   viewBox="0 0 19 16"
   fill="none"
   version="1.1"
   id="svg2"
   xmlns="http://www.w3.org/2000/svg"
   xmlns:svg="http://www.w3.org/2000/svg">
  <path
     id="path7"
     style="fill:#a0a0a0"
     d="M 9.5 0.5 C 8.7132824 0.5 8.0742188 1.1298824 8.0742188 1.90625 C 8.0742188 2.3456987 8.2819503 2.7324251 8.5996094 2.9902344 L 6.1816406 7.1679688 C 5.9174215 7.6249974 5.3233593 7.7773417 4.8691406 7.5078125 L 2.7226562 6.2363281 C 2.802816 6.0605487 2.8535156 5.8642594 2.8535156 5.65625 C 2.8535156 4.8798824 2.214452 4.25 1.4277344 4.25 C 0.64101671 4.25 -1.4802959e-16 4.8798824 0 5.65625 C 0 6.4326176 0.63906466 7.0625 1.4257812 7.0625 C 1.5029712 7.0625 1.580087 7.0507825 1.6542969 7.0390625 L 3.8007812 12.6875 L 15.199219 12.6875 L 17.345703 7.0390625 C 17.419903 7.0507825 17.497019 7.0625 17.574219 7.0625 C 18.360916 7.0625005 19 6.4326176 19 5.65625 C 19 4.8798824 18.360916 4.25 17.574219 4.25 C 16.787521 4.25 16.150391 4.8798824 16.150391 5.65625 C 16.150391 5.8642594 16.198151 6.0576187 16.28125 6.2363281 L 14.130859 7.5078125 C 13.673761 7.7773417 13.082559 7.6249974 12.818359 7.1679688 L 10.400391 2.9902344 C 10.718089 2.7324251 10.925781 2.3456987 10.925781 1.90625 C 10.925781 1.1298824 10.286697 0.5 9.5 0.5 z M 9.4589844 5.9511719 C 9.5461442 5.9511719 9.630702 5.9556781 9.7109375 5.9628906 C 9.791173 5.9701031 9.8680388 5.9797769 9.9414062 5.9941406 C 10.014774 6.0085044 10.083835 6.0273744 10.150391 6.0488281 C 10.216946 6.0702818 10.280044 6.0945644 10.339844 6.1230469 C 10.400244 6.1509593 10.456605 6.1827086 10.509766 6.2167969 C 10.562926 6.2508851 10.612393 6.2878006 10.658203 6.328125 C 10.704013 6.3684494 10.746808 6.4123636 10.785156 6.4589844 C 10.823504 6.5056051 10.857897 6.5544445 10.888672 6.6074219 C 10.919997 6.6598318 10.947252 6.7139479 10.970703 6.7714844 C 10.994155 6.8290209 11.013691 6.8904621 11.029297 6.953125 C 11.044903 7.0157879 11.056664 7.0806485 11.064453 7.1484375 C 11.072242 7.2162265 11.076172 7.2864601 11.076172 7.359375 C 11.076172 7.4414098 11.069623 7.5230727 11.056641 7.6035156 C 11.043658 7.6839586 11.024247 7.763182 10.998047 7.8417969 C 10.971847 7.9192667 10.940184 7.9967441 10.902344 8.0742188 C 10.864503 8.1516934 10.820484 8.2291658 10.771484 8.3066406 C 10.723634 8.3829755 10.671145 8.4596347 10.613281 8.5371094 C 10.555417 8.614584 10.492178 8.6928745 10.423828 8.7714844 C 10.287028 8.928714 10.13509 9.091146 9.96875 9.2597656 L 9.1035156 10.230469 L 11.236328 10.230469 L 11.236328 11 L 7.8320312 11 L 7.8320312 10.34375 L 9.4414062 8.6171875 C 9.522301 8.5271778 9.5944025 8.4423411 9.6582031 8.3632812 C 9.7220037 8.2842214 9.7775038 8.210938 9.8242188 8.1425781 C 9.8709286 8.0730783 9.91134 8.007528 9.9453125 7.9453125 C 9.979285 7.883097 10.006819 7.8242161 10.027344 7.7695312 C 10.048994 7.7137065 10.065472 7.6600347 10.076172 7.6074219 C 10.086872 7.5548091 10.091797 7.5032548 10.091797 7.453125 C 10.091797 7.3779302 10.085046 7.3086353 10.072266 7.2441406 C 10.059486 7.1796459 10.040675 7.1199511 10.015625 7.0664062 C 9.9655052 6.9570266 9.8929018 6.8717399 9.7949219 6.8125 C 9.7709944 6.7976875 9.7455249 6.7844546 9.71875 6.7734375 C 9.6919751 6.7624204 9.664388 6.753377 9.6347656 6.7460938 C 9.5755209 6.7315273 9.5100879 6.7246094 9.4394531 6.7246094 C 9.2890635 6.7246094 9.1581979 6.7610644 9.0488281 6.8339844 C 8.9952782 6.8704393 8.9472646 6.9140219 8.90625 6.9648438 C 8.8857427 6.9902547 8.8669839 7.0179181 8.8496094 7.046875 C 8.8322348 7.0758319 8.8169769 7.1061994 8.8027344 7.1386719 C 8.7753944 7.2036117 8.7558602 7.2725823 8.7421875 7.3457031 C 8.7285148 7.4188239 8.7207031 7.4960952 8.7207031 7.578125 L 7.7324219 7.578125 C 7.7324219 7.5040701 7.737172 7.4321595 7.7460938 7.3613281 C 7.7550155 7.2904968 7.7673743 7.2200118 7.7851562 7.1523438 C 7.8029382 7.0846757 7.824982 7.0196432 7.8515625 6.9550781 C 7.878143 6.890513 7.9099951 6.8271474 7.9453125 6.765625 C 7.9806324 6.7035301 8.0199637 6.6455745 8.0625 6.5898438 C 8.1050363 6.534113 8.151388 6.4809771 8.2011719 6.4316406 C 8.2509558 6.3823042 8.3042656 6.3358808 8.3613281 6.2929688 C 8.4183907 6.2500567 8.4785964 6.2102856 8.5429688 6.1738281 C 8.6073411 6.1368006 8.6737873 6.1039885 8.7441406 6.0761719 C 8.8144939 6.0483552 8.8885093 6.0263876 8.9648438 6.0078125 C 9.0411782 5.9892374 9.1208092 5.9741467 9.203125 5.9648438 C 9.2854408 5.9555408 9.370687 5.9511719 9.4589844 5.9511719 z M 3.3242188 13.625 C 3.0629695 13.625 2.8496094 13.835851 2.8496094 14.09375 L 2.8496094 15.03125 C 2.8496094 15.289149 3.0629695 15.5 3.3242188 15.5 L 15.675781 15.5 C 15.936981 15.5 16.150391 15.289149 16.150391 15.03125 L 16.150391 14.09375 C 16.150391 13.835851 15.936981 13.625 15.675781 13.625 L 3.3242188 13.625 z " />
  <defs
     id="defs2">
    <clipPath
       clipPathUnits="userSpaceOnUse"
       id="clipPath3">
      <g
         id="g4">
        <rect
           width="19"
           height="15"
           fill="#ffffff"
           id="rect3"
           x="0"
           y="0.5" />
      </g>
    </clipPath>
    <clipPath
       clipPathUnits="userSpaceOnUse"
       id="clipPath4">
      <g
         id="g5">
        <rect
           width="19"
           height="15"
           fill="#ffffff"
           id="rect4"
           x="0"
           y="0.5" />
      </g>
    </clipPath>
  </defs>
</svg>
