<?xml version="1.0" encoding="UTF-8" standalone="no"?>
<svg
   width="19"
   height="15"
   viewBox="0 0 19 15"
   fill="none"
   version="1.1"
   id="svg2"
   xmlns="http://www.w3.org/2000/svg"
   xmlns:svg="http://www.w3.org/2000/svg">
  <path
     id="path7"
     style="fill:#c8903d"
     d="M 9.5 0 C 8.7132824 0 8.0742188 0.62988533 8.0742188 1.40625 C 8.0742188 1.8456987 8.2819503 2.2324251 8.5996094 2.4902344 L 6.1816406 6.6679688 C 5.9174215 7.1249974 5.3233593 7.2773417 4.8691406 7.0078125 L 2.7226562 5.7363281 C 2.802816 5.5605487 2.8535156 5.3642594 2.8535156 5.15625 C 2.8535156 4.3798824 2.214452 3.75 1.4277344 3.75 C 0.64101671 3.75 -1.4802959e-16 4.3798824 0 5.15625 C 0 5.9326176 0.63906466 6.5625 1.4257812 6.5625 C 1.5029712 6.5625 1.580087 6.5507825 1.6542969 6.5390625 L 3.8007812 12.1875 L 15.199219 12.1875 L 17.345703 6.5390625 C 17.419903 6.5507825 17.497019 6.5625 17.574219 6.5625 C 18.360916 6.5625005 19 5.9326176 19 5.15625 C 19 4.3798824 18.360916 3.75 17.574219 3.75 C 16.787521 3.75 16.150391 4.3798824 16.150391 5.15625 C 16.150391 5.3642594 16.198151 5.5576187 16.28125 5.7363281 L 14.130859 7.0078125 C 13.673761 7.2773417 13.082559 7.1249974 12.818359 6.6679688 L 10.400391 2.4902344 C 10.718089 2.2324251 10.925781 1.8456987 10.925781 1.40625 C 10.925781 0.62988533 10.286697 0 9.5 0 z M 9.4042969 5.9511719 C 9.4886067 5.9511719 9.5694483 5.9541012 9.6484375 5.9609375 C 9.7274267 5.9677738 9.8052005 5.9785153 9.8789062 5.9921875 C 9.952612 6.0058597 10.023338 6.0224612 10.091797 6.0429688 C 10.160256 6.0634763 10.225813 6.0878919 10.289062 6.1152344 C 10.352287 6.1420093 10.412454 6.1719413 10.46875 6.2050781 C 10.525046 6.238215 10.577616 6.2749229 10.626953 6.3144531 C 10.67629 6.3539833 10.721325 6.3954513 10.763672 6.4414062 C 10.806018 6.4873612 10.845535 6.5374327 10.880859 6.5898438 C 10.91616 6.6422536 10.948032 6.6970013 10.974609 6.7558594 C 11.001187 6.8147175 11.023229 6.8781744 11.041016 6.9433594 C 11.058802 7.0085443 11.071151 7.0770469 11.080078 7.1484375 C 11.089005 7.2198281 11.09375 7.2936189 11.09375 7.3710938 C 11.09375 7.4103987 11.090496 7.449636 11.085938 7.4882812 C 11.081379 7.5269265 11.075522 7.5654699 11.066406 7.6035156 C 11.057291 7.6415614 11.044921 7.6792904 11.03125 7.7167969 C 11.017579 7.7543034 11.0026 7.7910976 10.984375 7.828125 C 10.96615 7.8645849 10.946221 7.9007973 10.923828 7.9355469 C 10.901435 7.9702965 10.876054 8.0040695 10.849609 8.0371094 C 10.79672 8.1031892 10.736369 8.1653645 10.667969 8.2246094 C 10.618568 8.2673239 10.565047 8.3073413 10.507812 8.34375 C 10.450578 8.3801587 10.38963 8.4129589 10.324219 8.4433594 C 10.408173 8.4730833 10.485115 8.5086639 10.556641 8.5488281 C 10.628166 8.5889923 10.694276 8.6337403 10.753906 8.6835938 C 10.788656 8.7120762 10.821083 8.7422947 10.851562 8.7734375 C 10.882042 8.8045803 10.911293 8.83726 10.9375 8.8710938 C 10.963707 8.9049275 10.987836 8.9400072 11.009766 8.9765625 C 11.031696 9.0131178 11.050709 9.0505363 11.068359 9.0898438 C 11.086034 9.1285787 11.102033 9.1681575 11.115234 9.2089844 C 11.15484 9.3314649 11.173828 9.4636215 11.173828 9.6054688 C 11.173828 9.6635736 11.171521 9.7205106 11.166016 9.7753906 C 11.16051 9.8302706 11.15167 9.8838301 11.140625 9.9355469 C 11.12958 9.9872636 11.116228 10.037322 11.099609 10.085938 C 11.082991 10.134553 11.063241 10.180988 11.041016 10.226562 C 11.018791 10.271587 10.99348 10.315739 10.966797 10.357422 C 10.940114 10.399105 10.912066 10.438277 10.880859 10.476562 C 10.849653 10.514848 10.817045 10.551105 10.78125 10.585938 C 10.745455 10.62077 10.706465 10.654222 10.666016 10.685547 C 10.626141 10.716897 10.584309 10.745807 10.541016 10.773438 C 10.497722 10.801068 10.452962 10.827643 10.40625 10.851562 C 10.359538 10.875482 10.31185 10.897751 10.261719 10.917969 C 10.211588 10.938187 10.159019 10.956131 10.105469 10.972656 C 10.051916 10.988606 9.997422 11.001709 9.9414062 11.013672 C 9.8853905 11.025634 9.8279815 11.036947 9.7695312 11.044922 C 9.711081 11.052897 9.6506995 11.058513 9.5898438 11.0625 C 9.528988 11.066487 9.4675292 11.068359 9.4042969 11.068359 C 9.2994771 11.068359 9.195027 11.061235 9.0917969 11.046875 C 8.9885668 11.032515 8.886556 11.010922 8.7851562 10.982422 C 8.7350264 10.967622 8.6865236 10.950057 8.6386719 10.931641 C 8.5908202 10.913225 8.54362 10.89309 8.4980469 10.871094 C 8.4524738 10.849097 8.4085286 10.826322 8.3652344 10.800781 C 8.3219402 10.77524 8.2792962 10.7478 8.2382812 10.71875 C 8.1978363 10.689125 8.1594136 10.658237 8.1230469 10.625 C 8.0866802 10.591763 8.0518802 10.556439 8.0195312 10.519531 C 7.9871823 10.482624 7.9580792 10.44298 7.9296875 10.402344 C 7.9012958 10.361707 7.8741044 10.319815 7.8496094 10.275391 C 7.8256843 10.230391 7.8051451 10.183853 7.7871094 10.134766 C 7.7690736 10.085678 7.7542726 10.033672 7.7421875 9.9804688 C 7.7301024 9.9272654 7.720917 9.8718015 7.7148438 9.8144531 C 7.7087705 9.7571047 7.7050781 9.6982411 7.7050781 9.6367188 L 8.6933594 9.6367188 C 8.6933594 9.7005186 8.7008461 9.7613927 8.7167969 9.8183594 C 8.7247722 9.8468427 8.7360841 9.8736163 8.7480469 9.9003906 C 8.7600096 9.927165 8.7731125 9.9534507 8.7890625 9.9785156 C 8.8209624 10.028651 8.8583583 10.073858 8.9023438 10.113281 C 8.9463292 10.152705 8.9969045 10.186344 9.0527344 10.214844 C 9.1096992 10.243294 9.1693116 10.263461 9.2324219 10.277344 C 9.2955322 10.291226 9.3621408 10.298828 9.4316406 10.298828 C 9.5102554 10.298828 9.5834147 10.291226 9.6503906 10.277344 C 9.6673692 10.273825 9.6829685 10.270064 9.6992188 10.265625 C 9.7473256 10.25253 9.7921157 10.236181 9.8339844 10.214844 C 9.8483244 10.20738 9.8615251 10.199643 9.875 10.191406 C 9.888388 10.183232 9.9015283 10.174938 9.9140625 10.166016 C 9.939131 10.148171 9.9627249 10.12817 9.984375 10.107422 C 10.006025 10.086674 10.026695 10.064551 10.044922 10.041016 C 10.063149 10.01748 10.07895 9.9930044 10.09375 9.9667969 C 10.139875 9.8864795 10.169688 9.7964039 10.181641 9.6972656 C 10.185625 9.6642195 10.1875 9.631023 10.1875 9.5957031 C 10.1875 9.5494077 10.185948 9.5064361 10.181641 9.4648438 C 10.181423 9.4627019 10.179917 9.4611138 10.179688 9.4589844 C 10.175525 9.4203366 10.169995 9.3841637 10.162109 9.3496094 C 10.154739 9.3173145 10.145367 9.2865319 10.134766 9.2578125 C 10.133335 9.2539605 10.132348 9.2498812 10.130859 9.2460938 C 10.129194 9.2418216 10.126739 9.2385655 10.125 9.234375 C 10.113753 9.2072743 10.102203 9.1818861 10.087891 9.1582031 C 10.071366 9.1302922 10.053238 9.1042876 10.033203 9.0800781 C 10.013168 9.0558686 9.9903754 9.0341795 9.9667969 9.0136719 C 9.9432184 8.9931643 9.9177792 8.9738365 9.890625 8.9570312 C 9.8634708 8.940226 9.8354499 8.9252118 9.8046875 8.9121094 C 9.7431627 8.8859045 9.6764319 8.8664956 9.6035156 8.8535156 C 9.5305994 8.8405356 9.4514973 8.8339844 9.3671875 8.8339844 L 8.8398438 8.8339844 L 8.8398438 8.6074219 L 8.8398438 8.3242188 L 8.8398438 8.0839844 L 9.3671875 8.0839844 C 9.4514973 8.0839844 9.5284011 8.0768631 9.5976562 8.0625 C 9.6322838 8.0553184 9.6643578 8.0458833 9.6953125 8.0351562 C 9.7262672 8.0244292 9.7558607 8.0122894 9.7832031 7.9980469 C 9.8105481 7.9832369 9.8354565 7.9666947 9.859375 7.9492188 C 9.8832935 7.9317427 9.9053774 7.912842 9.9257812 7.8925781 C 9.9461851 7.8723143 9.9656209 7.8512985 9.9824219 7.828125 C 9.9992229 7.8049515 10.014234 7.7801112 10.027344 7.7539062 C 10.054694 7.7003565 10.076174 7.6422923 10.089844 7.5800781 C 10.103514 7.5178639 10.109375 7.4514992 10.109375 7.3808594 C 10.109375 7.3170595 10.102624 7.2559822 10.089844 7.1992188 C 10.077064 7.1424553 10.058253 7.0900055 10.033203 7.0410156 C 10.02124 7.0159506 10.007472 6.9929198 9.9921875 6.9707031 C 9.9769032 6.9484865 9.9599815 6.9275715 9.9414062 6.9082031 C 9.922831 6.8888347 9.9026948 6.870036 9.8808594 6.8535156 C 9.859024 6.8369953 9.8356118 6.8222662 9.8105469 6.8085938 C 9.7854794 6.7943513 9.758764 6.7820283 9.7304688 6.7714844 C 9.7021735 6.7609404 9.6721795 6.7530312 9.640625 6.7460938 C 9.5775159 6.7322189 9.5079754 6.7246094 9.4316406 6.7246094 C 9.3712558 6.7246094 9.3133948 6.7301023 9.2578125 6.7421875 C 9.2022302 6.7542727 9.148926 6.77295 9.0976562 6.796875 C 9.0463864 6.8208 9.0000003 6.8493245 8.9589844 6.8828125 C 8.9179684 6.9163005 8.8823224 6.954752 8.8515625 6.9980469 C 8.7900326 7.0846367 8.7578125 7.1894502 8.7578125 7.3125 L 7.7714844 7.3125 C 7.7714844 7.2441401 7.7760422 7.1772715 7.7851562 7.1132812 C 7.7942703 7.049291 7.8079431 6.9873248 7.8261719 6.9277344 C 7.8444006 6.8681439 7.8671872 6.8110197 7.8945312 6.7558594 C 7.9218753 6.7006991 7.9537744 6.6483561 7.9902344 6.5976562 C 8.0272618 6.5469564 8.0681253 6.498225 8.1113281 6.453125 C 8.1545309 6.408025 8.2005613 6.3657024 8.25 6.3261719 C 8.2994387 6.2866414 8.3524679 6.2507882 8.4082031 6.2167969 C 8.4639384 6.1828055 8.521892 6.1515293 8.5839844 6.1230469 C 8.6460792 6.0945644 8.7101647 6.0702819 8.7753906 6.0488281 C 8.8406166 6.0273744 8.906251 6.0085044 8.9746094 5.9941406 C 9.0429678 5.9797769 9.1140547 5.9701031 9.1855469 5.9628906 C 9.2570391 5.9556781 9.3296695 5.9511719 9.4042969 5.9511719 z M 3.3242188 13.125 C 3.0629695 13.125 2.8496094 13.335851 2.8496094 13.59375 L 2.8496094 14.53125 C 2.8496094 14.789149 3.0629695 15 3.3242188 15 L 15.675781 15 C 15.936981 15 16.150391 14.789149 16.150391 14.53125 L 16.150391 13.59375 C 16.150391 13.335851 15.936981 13.125 15.675781 13.125 L 3.3242188 13.125 z " />
  <defs
     id="defs2">
    <clipPath
       clipPathUnits="userSpaceOnUse"
       id="clipPath3">
      <g
         id="g4">
        <rect
           width="19"
           height="15"
           fill="#ffffff"
           id="rect3"
           x="0"
           y="0" />
      </g>
    </clipPath>
    <clipPath
       clipPathUnits="userSpaceOnUse"
       id="clipPath4">
      <g
         id="g5">
        <rect
           width="19"
           height="15"
           fill="#ffffff"
           id="rect4"
           x="0"
           y="0" />
      </g>
    </clipPath>
  </defs>
</svg>
