<svg width="11" height="10" viewBox="0 0 11 10" fill="none" xmlns="http://www.w3.org/2000/svg">
<path d="M10.3889 4.62723C10.5024 4.54263 10.5867 4.42461 10.6298 4.28972C10.6729 4.15482 10.6727 4.00982 10.6292 3.87505C10.5858 3.74027 10.5012 3.62248 10.3874 3.53818C10.2736 3.45389 10.1363 3.40732 9.99471 3.40501L7.24471 3.30112C7.23119 3.30019 7.21823 3.29536 7.20739 3.28723C7.19655 3.2791 7.18829 3.268 7.1836 3.25529L6.23333 0.688619C6.18558 0.558036 6.09886 0.44528 5.98491 0.365615C5.87096 0.28595 5.73528 0.243225 5.59624 0.243225C5.45721 0.243225 5.32153 0.28595 5.20757 0.365615C5.09362 0.44528 5.0069 0.558036 4.95916 0.688619L4.01194 3.26445C4.00725 3.27717 3.99899 3.28826 3.98815 3.2964C3.97731 3.30453 3.96435 3.30935 3.95083 3.31029L1.20083 3.41417C1.05923 3.41649 0.921914 3.46306 0.808123 3.54735C0.694333 3.63164 0.609777 3.74944 0.566312 3.88421C0.522846 4.01899 0.522651 4.16399 0.565754 4.29888C0.608857 4.43378 0.693096 4.5518 0.806659 4.6364L2.96388 6.33223C2.97468 6.34073 2.98275 6.3522 2.98709 6.36523C2.99144 6.37827 2.99186 6.39229 2.98833 6.40556L2.24583 9.0364C2.20735 9.17036 2.21108 9.31293 2.2565 9.44471C2.30193 9.57648 2.38684 9.69107 2.4997 9.77287C2.61255 9.85467 2.74787 9.89973 2.88723 9.9019C3.0266 9.90407 3.16325 9.86325 3.2786 9.78501L5.55805 8.25723C5.56928 8.24948 5.5826 8.24533 5.59624 8.24533C5.60989 8.24533 5.62321 8.24948 5.63444 8.25723L7.91388 9.78501C8.02767 9.86593 8.16384 9.90941 8.30346 9.90941C8.44309 9.90941 8.57926 9.86593 8.69305 9.78501C8.80593 9.70397 8.89093 9.58995 8.93635 9.45863C8.98176 9.3273 8.98537 9.18513 8.94666 9.05167L8.19805 6.41167C8.19408 6.39842 8.1943 6.38427 8.19868 6.37114C8.20305 6.35802 8.21137 6.34656 8.22249 6.33834L10.3889 4.62723Z" fill="#F0F0F0"/>
</svg>
